<?xml version="1.0" encoding="UTF-8" standalone="no"?>
<!-- Created with Inkscape (http://www.inkscape.org/) -->

<svg
   xmlns:dc="http://purl.org/dc/elements/1.1/"
   xmlns:cc="http://creativecommons.org/ns#"
   xmlns:rdf="http://www.w3.org/1999/02/22-rdf-syntax-ns#"
   xmlns:svg="http://www.w3.org/2000/svg"
   xmlns="http://www.w3.org/2000/svg"
   xmlns:sodipodi="http://sodipodi.sourceforge.net/DTD/sodipodi-0.dtd"
   xmlns:inkscape="http://www.inkscape.org/namespaces/inkscape"
   width="300"
   height="32"
   id="svg2"
   version="1.1"
   inkscape:version="0.48.4 r9939"
   sodipodi:docname="icons.svg"
   inkscape:export-filename="/home/jossemargt/localhost/wp/wp-content/plugins/MU-dashboard-feedback-button/assets/icons.png"
   inkscape:export-xdpi="90"
   inkscape:export-ydpi="90">
  <defs
     id="defs4" />
  <sodipodi:namedview
     id="base"
     pagecolor="#ffffff"
     bordercolor="#666666"
     borderopacity="1.0"
     inkscape:pageopacity="0.0"
     inkscape:pageshadow="2"
     inkscape:zoom="7.9195959"
     inkscape:cx="29.851211"
     inkscape:cy="9.4111102"
     inkscape:document-units="px"
     inkscape:current-layer="layer1"
     showgrid="false"
     width="300px"
     inkscape:snap-grids="false"
     inkscape:object-paths="true"
     showguides="true"
     inkscape:guide-bbox="true"
     inkscape:snap-to-guides="true"
     inkscape:window-width="1366"
     inkscape:window-height="710"
     inkscape:window-x="0"
     inkscape:window-y="26"
     inkscape:window-maximized="1">
    <sodipodi:guide
       orientation="0,1"
       position="1.5783634,23.549181"
       id="guide5229" />
    <sodipodi:guide
       orientation="0,1"
       position="6.3616072,16.495536"
       id="guide5231" />
    <sodipodi:guide
       orientation="1,0"
       position="32.857143,18.705357"
       id="guide5233" />
    <sodipodi:guide
       orientation="1,0"
       position="16.428571,19.419643"
       id="guide5235" />
  </sodipodi:namedview>
  <metadata
     id="metadata7">
    <rdf:RDF>
      <cc:Work
         rdf:about="">
        <dc:format>image/svg+xml</dc:format>
        <dc:type
           rdf:resource="http://purl.org/dc/dcmitype/StillImage" />
        <dc:title></dc:title>
      </cc:Work>
    </rdf:RDF>
  </metadata>
  <g
     inkscape:label="HappyFace"
     inkscape:groupmode="layer"
     id="layer1"
     transform="translate(0,-1020.3622)"
     style="display:inline">
    <path
       sodipodi:type="arc"
       style="fill:none;stroke:#000000;stroke-width:2.82767248;stroke-linejoin:round;stroke-miterlimit:4;stroke-opacity:1;stroke-dasharray:none"
       id="path3755"
       sodipodi:cx="12.374369"
       sodipodi:cy="21.14086"
       sodipodi:rx="16.920053"
       sodipodi:ry="17.172592"
       d="m 29.294422,21.14086 a 16.920053,17.172592 0 1 1 -33.8401068,0 16.920053,17.172592 0 1 1 33.8401068,0 z"
       transform="matrix(0.89760981,0,0,0.87083169,5.1336943,1018.0131)" />
    <path
       sodipodi:type="arc"
       style="fill:#000000;fill-opacity:1;stroke:none"
       id="path3761"
       sodipodi:cx="10.535714"
       sodipodi:cy="10.883928"
       sodipodi:rx="2.4107144"
       sodipodi:ry="2.8125"
       d="m 12.946429,10.883928 a 2.4107144,2.8125 0 1 1 -4.8214292,0 2.4107144,2.8125 0 1 1 4.8214292,0 z"
       transform="matrix(1.4074074,0,0,1.2380952,-4.9218147,1018.8371)" />
    <path
       sodipodi:type="arc"
       style="fill:#000000;fill-opacity:1;stroke:#000000;stroke-linejoin:round;stroke-opacity:1"
       id="path3793"
       sodipodi:cx="14.330358"
       sodipodi:cy="19.723215"
       sodipodi:rx="3.0803571"
       sodipodi:ry="2.5446429"
       d="m 17.410715,19.723215 a 3.0803571,2.5446429 0 0 1 -6.160713,0.0024 l 3.080356,-0.0024 z"
       transform="matrix(2.1112367,0,0,2.6994195,-14.013729,985.89188)"
       sodipodi:start="0"
       sodipodi:end="3.1406526" />
    <path
       transform="matrix(1.4074074,0,0,1.2380952,7.7478282,1018.8371)"
       d="m 12.946429,10.883928 a 2.4107144,2.8125 0 1 1 -4.8214292,0 2.4107144,2.8125 0 1 1 4.8214292,0 z"
       sodipodi:ry="2.8125"
       sodipodi:rx="2.4107144"
       sodipodi:cy="10.883928"
       sodipodi:cx="10.535714"
       id="path5237"
       style="fill:#000000;fill-opacity:1;stroke:none"
       sodipodi:type="arc" />
  </g>
  <g
     inkscape:groupmode="layer"
     id="layer2"
     inkscape:label="SadFace">
    <path
       transform="matrix(0.89760981,0,0,0.87083169,41.188345,-2.205693)"
       d="m 29.294422,21.14086 a 16.920053,17.172592 0 1 1 -33.8401068,0 16.920053,17.172592 0 1 1 33.8401068,0 z"
       sodipodi:ry="17.172592"
       sodipodi:rx="16.920053"
       sodipodi:cy="21.14086"
       sodipodi:cx="12.374369"
       id="path5258"
       style="fill:none;stroke:#000000;stroke-width:2.82767248;stroke-linejoin:round;stroke-miterlimit:4;stroke-opacity:1;stroke-dasharray:none"
       sodipodi:type="arc" />
    <path
       transform="matrix(1.4074074,0,0,1.2380952,31.132836,-1.381693)"
       d="m 12.946429,10.883928 a 2.4107144,2.8125 0 1 1 -4.8214292,0 2.4107144,2.8125 0 1 1 4.8214292,0 z"
       sodipodi:ry="2.8125"
       sodipodi:rx="2.4107144"
       sodipodi:cy="10.883928"
       sodipodi:cx="10.535714"
       id="path5260"
       style="fill:#000000;fill-opacity:1;stroke:none"
       sodipodi:type="arc" />
    <path
       sodipodi:end="3.1406526"
       sodipodi:start="0"
       transform="matrix(2.1796197,0,0,-1.7733047,21.060968,58.191407)"
       d="m 17.410715,19.723215 a 3.0803571,2.5446429 0 0 1 -6.160713,0.0024 l 3.080356,-0.0024 z"
       sodipodi:ry="2.5446429"
       sodipodi:rx="3.0803571"
       sodipodi:cy="19.723215"
       sodipodi:cx="14.330358"
       id="path5262"
       style="fill:#000000;fill-opacity:1;stroke:#000000;stroke-linejoin:round;stroke-opacity:1"
       sodipodi:type="arc" />
    <path
       sodipodi:type="arc"
       style="fill:#000000;fill-opacity:1;stroke:none"
       id="path5264"
       sodipodi:cx="10.535714"
       sodipodi:cy="10.883928"
       sodipodi:rx="2.4107144"
       sodipodi:ry="2.8125"
       d="m 12.946429,10.883928 a 2.4107144,2.8125 0 1 1 -4.8214292,0 2.4107144,2.8125 0 1 1 4.8214292,0 z"
       transform="matrix(1.4074074,0,0,1.2380952,43.802479,-1.381693)" />
  </g>
</svg>
